HIERARCHY
ROOT Hips
{
	OFFSET 0.000000 0.000000 0.000000
	CHANNELS 6 Xposition Yposition Zposition Xrotation Yrotation Zrotation
	JOINT LeftUpLeg_virtual
	{
		OFFSET 0.000000 0.000000 0.000000
		CHANNELS 3 Xrotation Yrotation Zrotation
		JOINT LeftUpLeg
		{
			OFFSET 11.394100 -6.187798 -0.413800
			CHANNELS 3 Xrotation Yrotation Zrotation
			JOINT LeftLeg
			{
				OFFSET 0.430247 -32.302673 3.732800
				CHANNELS 3 Xrotation Yrotation Zrotation
				JOINT LeftFoot
				{
					OFFSET -0.430247 -48.264931 -6.423300
					CHANNELS 3 Xrotation Yrotation Zrotation
					JOINT LeftToeBase
					{
						OFFSET 4.230900 -16.068199 23.438400
						CHANNELS 3 Xrotation Yrotation Zrotation
						JOINT LeftToe_End
						{
							OFFSET 4.510700 0.695400 19.974600
							CHANNELS 3 Xrotation Yrotation Zrotation
							End Site
							{
								OFFSET 0 0 0
							}
						}
					}
				}
			}
		}
	}
	JOINT RightUpLeg_virtual
	{
		OFFSET 0.000000 0.000000 0.000000
		CHANNELS 3 Xrotation Yrotation Zrotation
		JOINT RightUpLeg
		{
			OFFSET -11.333700 -6.187798 -0.413800
			CHANNELS 3 Xrotation Yrotation Zrotation
			JOINT RightLeg
			{
				OFFSET -0.430392 -32.302628 3.733000
				CHANNELS 3 Xrotation Yrotation Zrotation
				JOINT RightFoot
				{
					OFFSET 0.430392 -48.264973 -6.423500
					CHANNELS 3 Xrotation Yrotation Zrotation
					JOINT RightToeBase
					{
						OFFSET -4.230900 -16.068199 23.438400
						CHANNELS 3 Xrotation Yrotation Zrotation
						JOINT RightToe_End
						{
							OFFSET -4.510700 0.695400 19.974600
							CHANNELS 3 Xrotation Yrotation Zrotation
							End Site
							{
								OFFSET 0 0 0
							}
						}
					}
				}
			}
		}
	}
	JOINT Spine_virtual
	{
		OFFSET 0.000000 0.000000 0.000000
		CHANNELS 3 Xrotation Yrotation Zrotation
		JOINT Spine
		{
			OFFSET -0.002400 12.777504 0.315300
			CHANNELS 3 Xrotation Yrotation Zrotation
			JOINT Spine1
			{
				OFFSET -0.002067 5.816869 0.032633
				CHANNELS 3 Xrotation Yrotation Zrotation
				JOINT Spine1_split
				{
					OFFSET -0.002067 5.816869 0.032633
					CHANNELS 3 Xrotation Yrotation Zrotation
					JOINT Spine2
					{
						OFFSET -0.002067 5.816869 0.032633
						CHANNELS 3 Xrotation Yrotation Zrotation
						JOINT Neck_virtual
						{
							OFFSET 0.000000 0.000000 0.000000
							CHANNELS 3 Xrotation Yrotation Zrotation
							JOINT Neck
							{
								OFFSET -0.003700 21.199493 -0.826900
								CHANNELS 3 Xrotation Yrotation Zrotation
								JOINT Head
								{
									OFFSET 0.000000 20.442200 4.834800
									CHANNELS 3 Xrotation Yrotation Zrotation
									JOINT HeadTop_End
									{
										OFFSET 0.000000 34.668396 4.968400
										CHANNELS 3 Xrotation Yrotation Zrotation
										End Site
										{
											OFFSET 0 0 0
										}
									}
								}
							}
						}
						JOINT LeftShoulder_virtual
						{
							OFFSET 0.000000 0.000000 0.000000
							CHANNELS 3 Xrotation Yrotation Zrotation
							JOINT LeftShoulder
							{
								OFFSET 3.288150 8.794197 -1.372250
								CHANNELS 3 Xrotation Yrotation Zrotation
								JOINT LeftShoulder_split
								{
									OFFSET 3.288150 8.794197 -1.372250
									CHANNELS 3 Xrotation Yrotation Zrotation
									JOINT LeftArm
									{
										OFFSET 11.953299 -2.279007 -0.146200
										CHANNELS 3 Xrotation Yrotation Zrotation
										JOINT LeftForeArm
										{
											OFFSET 18.448900 0.000000 0.000000
											CHANNELS 3 Xrotation Yrotation Zrotation
											JOINT LeftHand
											{
												OFFSET 29.527798 0.000000 0.000000
												CHANNELS 3 Xrotation Yrotation Zrotation
												End Site
												{
													OFFSET 0 0 0
												}
											}
										}
									}
								}
							}
						}
						JOINT RightShoulder_virtual
						{
							OFFSET 0.000000 0.000000 0.000000
							CHANNELS 3 Xrotation Yrotation Zrotation
							JOINT RightShoulder
							{
								OFFSET -3.249400 8.794197 -1.372250
								CHANNELS 3 Xrotation Yrotation Zrotation
								JOINT RightShoulder_split
								{
									OFFSET -3.249400 8.794197 -1.372250
									CHANNELS 3 Xrotation Yrotation Zrotation
									JOINT RightArm
									{
										OFFSET -11.953299 -2.279007 -0.146200
										CHANNELS 3 Xrotation Yrotation Zrotation
										JOINT RightForeArm
										{
											OFFSET -18.448900 0.000000 0.000000
											CHANNELS 3 Xrotation Yrotation Zrotation
											JOINT RightHand
											{
												OFFSET -29.527802 0.000000 0.000000
												CHANNELS 3 Xrotation Yrotation Zrotation
												End Site
												{
													OFFSET 0 0 0
												}
											}
										}
									}
								}
							}
						}
					}
				}
			}
		}
	}
}
MOTION
Frames: 10
Frame Time: 0.03333333
3.990989 92.605453 117.816879 0.000000 0.000000 0.000000 3.550503 -6.380087 -3.505572 -52.928321 8.680754 10.541793 38.319130 -5.905338 3.621544 0.730965 -11.245708 -2.904866 4.289521 -1.961964 0.567515 0.000000 0.000000 0.000000 3.550503 -6.380087 -3.505572 -25.798296 2.106766 8.245206 45.275494 3.450729 -2.141332 -22.841957 -0.522437 -0.994785 -1.095157 -0.000001 -0.000000 0.000000 0.000000 0.000000 3.550503 -6.380087 -3.505572 16.044201 3.372239 1.564255 19.617242 7.612217 3.331498 0.000000 0.000000 0.000000 0.000000 0.000000 0.000000 19.436459 7.747064 3.778476 -47.550650 27.672100 -28.991380 38.119238 -35.320657 37.422726 0.000000 0.000000 0.000000 19.436459 7.747064 3.778476 -3.381592 -14.879791 -10.335932 0.000000 0.000000 0.000000 -13.224279 6.607390 -66.021865 0.000012 -61.657730 0.000008 0.000000 0.000000 0.000000 19.436459 7.747064 3.778476 -0.354247 18.524219 5.452754 0.000000 0.000000 0.000000 -46.329641 9.134339 35.856082 -179.999950 77.992236 179.999964 0.000000 0.000000 0.000000 
3.540336 92.943565 116.116348 0.000000 0.000000 0.000000 1.732418 -6.456729 -4.187787 -52.073827 8.304766 11.981521 39.653660 -4.002615 3.741177 -3.604415 -6.599995 -3.047708 3.731101 -2.876474 1.489690 0.000000 0.000000 0.000000 1.732418 -6.456729 -4.187787 -24.700850 1.453851 8.809442 44.501360 4.037478 -1.955853 -21.410503 -0.509144 -1.300171 -0.815233 -0.000000 0.000002 0.000000 0.000000 0.000000 1.732418 -6.456729 -4.187787 15.712278 3.358611 1.852962 18.892732 7.360077 3.379201 0.000000 0.000000 0.000000 0.000000 0.000000 0.000000 18.719018 7.487801 3.782730 -47.227982 26.281468 -28.461888 39.969912 -34.405152 38.024025 0.000000 0.000000 0.000000 18.719018 7.487801 3.782730 -2.920880 -13.934230 -10.054509 0.000000 0.000000 0.000000 -15.900435 7.130564 -67.405006 -0.000015 -55.377354 -0.000035 0.000000 0.000000 0.000000 18.719018 7.487801 3.782730 -0.415597 16.816233 7.010206 0.000000 0.000000 0.000000 -50.064843 9.752495 34.132692 179.999964 77.984778 -179.999978 0.000000 0.000000 0.000000 
3.169490 93.192314 114.542023 0.000000 0.000000 0.000000 -0.092274 -5.960417 -4.608270 -50.247697 6.471009 13.211561 41.214458 2.586298 2.258562 -5.431634 -6.244872 -3.872541 2.830170 -3.535705 2.253638 0.000000 0.000000 0.000000 -0.092274 -5.960417 -4.608270 -23.662849 0.944767 9.387109 44.128032 4.389124 -2.056265 -20.177842 -0.981302 -1.531282 -0.534734 0.000002 -0.000001 0.000000 0.000000 0.000000 -0.092274 -5.960417 -4.608270 15.425224 3.263055 2.197425 18.307156 6.842975 3.335158 0.000000 0.000000 0.000000 0.000000 0.000000 0.000000 18.139598 6.974631 3.683822 -47.474507 23.980709 -27.014407 40.047892 -33.747890 36.703825 0.000000 0.000000 0.000000 18.139598 6.974631 3.683822 -2.496463 -13.195357 -9.565476 0.000000 0.000000 0.000000 -18.578979 8.187682 -68.480269 -0.000016 -49.237335 -0.000040 0.000000 0.000000 0.000000 18.139598 6.974631 3.683822 -0.357487 14.871764 8.511747 0.000000 0.000000 0.000000 -54.828647 10.545197 32.887781 -179.999950 79.129613 179.999964 0.000000 0.000000 0.000000 
2.900938 93.308693 113.106628 0.000000 0.000000 0.000000 -1.824960 -5.019383 -4.889885 -47.830251 5.246810 14.722254 43.079939 6.222669 1.241851 -2.112522 -5.805414 -8.047300 2.189373 -5.186649 3.787635 0.000000 0.000000 0.000000 -1.824960 -5.019383 -4.889885 -22.568789 0.423965 9.965687 43.917864 4.443118 -2.307742 -19.489608 -1.645800 -2.088999 -0.377702 0.000001 -0.000001 0.000000 0.000000 0.000000 -1.824960 -5.019383 -4.889885 15.191556 3.111460 2.618683 17.724867 6.151640 3.244094 0.000000 0.000000 0.000000 0.000000 0.000000 0.000000 17.563862 6.278934 3.554085 -48.125649 20.993027 -25.171757 38.821566 -33.048246 34.143200 0.000000 0.000000 0.000000 17.563862 6.278934 3.554085 -2.043075 -12.649536 -9.012653 0.000000 0.000000 0.000000 -20.905694 9.779922 -69.261806 0.000002 -44.059235 0.000015 0.000000 0.000000 0.000000 17.563862 6.278934 3.554085 -0.267046 12.535945 9.806651 0.000000 0.000000 0.000000 -61.139045 11.110015 32.393869 179.999800 79.252058 -179.999800 0.000000 0.000000 0.000000 
2.765687 93.214233 111.822235 0.000000 0.000000 0.000000 -3.323450 -3.912645 -5.256294 -44.776101 4.614337 16.199540 46.200619 5.250180 0.975310 -0.368331 -5.334953 -13.390816 1.942430 -6.840333 5.239021 0.000000 0.000000 0.000000 -3.323450 -3.912645 -5.256294 -21.769925 -0.350398 10.580139 44.170939 4.512998 -2.608405 -19.478214 -2.341470 -2.875505 -0.235739 -0.000001 -0.000000 0.000000 0.000000 0.000000 -3.323450 -3.912645 -5.256294 14.937530 2.924560 3.179910 17.074476 5.400404 3.165253 0.000000 0.000000 0.000000 0.000000 0.000000 0.000000 16.922714 5.503442 3.459012 -48.745154 17.997566 -23.542358 37.034659 -32.466068 31.243150 0.000000 0.000000 0.000000 16.922714 5.503442 3.459012 -1.565848 -12.217982 -8.558235 0.000000 0.000000 0.000000 -22.475895 11.559220 -69.794561 -0.000002 -40.635719 -0.000003 0.000000 0.000000 0.000000 16.922714 5.503442 3.459012 -0.083305 9.912747 10.665535 0.000000 0.000000 0.000000 -68.418442 10.326506 32.300829 -179.999827 77.687432 179.999827 0.000000 0.000000 0.000000 
2.728185 93.056351 110.590164 0.000000 0.000000 0.000000 -4.444694 -2.910373 -5.660746 -44.474258 3.575246 16.455338 54.080096 4.868798 0.770848 -0.996617 -5.833390 -10.191785 -2.151494 -4.834752 6.748918 0.000000 0.000000 0.000000 -4.444694 -2.910373 -5.660746 -21.491981 -1.008727 10.979311 44.543857 4.314471 -2.622491 -19.429605 -2.677859 -3.354624 -0.114642 -0.000002 -0.000003 0.000000 0.000000 0.000000 -4.444694 -2.910373 -5.660746 14.581650 2.654101 3.722223 16.332172 4.635414 3.120936 0.000000 0.000000 0.000000 0.000000 0.000000 0.000000 16.191390 4.712221 3.392033 -49.069322 15.666405 -22.234682 35.367085 -32.478700 28.952520 0.000000 0.000000 0.000000 16.191390 4.712221 3.392033 -1.190354 -11.807696 -8.251995 0.000000 0.000000 0.000000 -22.888471 12.980304 -70.167490 0.000000 -39.331713 -0.000009 0.000000 0.000000 0.000000 16.191390 4.712221 3.392033 0.136384 7.326279 11.014314 0.000000 0.000000 0.000000 -75.221754 9.077748 31.832821 -179.999950 73.663809 179.999937 0.000000 0.000000 0.000000 
2.739736 92.884682 109.361710 0.000000 0.000000 0.000000 -5.110850 -2.200758 -6.063991 -43.901796 2.279390 17.268376 62.148117 8.114489 -0.093243 -0.290961 -6.862220 -4.993454 -12.989702 -4.547092 0.747236 0.000000 0.000000 0.000000 -5.110850 -2.200758 -6.063991 -21.958529 -1.238806 11.172148 44.981744 3.894797 -2.277504 -18.924765 -2.784407 -3.249654 0.005982 -0.000001 0.000000 0.000000 0.000000 0.000000 -5.110850 -2.200758 -6.063991 14.124852 2.283330 4.148160 15.442694 3.864835 3.074608 0.000000 0.000000 0.000000 0.000000 0.000000 0.000000 15.308477 3.933224 3.317533 -49.068731 13.776594 -21.401752 34.115958 -32.723259 27.580751 0.000000 0.000000 0.000000 15.308477 3.933224 3.317533 -0.889495 -11.438275 -8.040851 0.000000 0.000000 0.000000 -22.174330 13.750642 -70.394819 0.000010 -39.830702 0.000026 0.000000 0.000000 0.000000 15.308477 3.933224 3.317533 0.386271 5.139927 10.953982 0.000000 0.000000 0.000000 -84.419424 7.097666 30.931533 -179.999950 68.500418 179.999937 0.000000 0.000000 0.000000 
2.810848 92.750519 108.137070 0.000000 0.000000 0.000000 -5.350176 -1.824540 -6.470853 -42.840869 -0.065552 19.061531 69.574738 10.054995 -1.196524 0.824828 -5.916470 -6.542961 -20.820032 -1.935208 -0.720260 0.000000 0.000000 0.000000 -5.350176 -1.824540 -6.470853 -22.787314 -1.641255 11.351835 45.254883 3.806974 -2.103909 -18.245990 -2.910880 -3.214926 0.116699 -0.000001 0.000000 0.000000 0.000000 0.000000 -5.350176 -1.824540 -6.470853 13.589583 1.839279 4.398699 14.392407 3.111302 3.042902 0.000000 0.000000 0.000000 0.000000 0.000000 0.000000 14.262521 3.168424 3.283896 -48.041915 12.257454 -20.755579 32.775400 -33.640229 26.232784 0.000000 0.000000 0.000000 14.262521 3.168424 3.283896 -0.753938 -11.208861 -7.945754 0.000000 0.000000 0.000000 -20.607490 14.058940 -70.411061 0.000002 -41.363776 -0.000011 0.000000 0.000000 0.000000 14.262521 3.168424 3.283896 0.556513 3.460018 10.515418 0.000000 0.000000 0.000000 -91.388238 6.197439 28.870667 179.999978 65.144965 -179.999964 0.000000 0.000000 0.000000 
2.925027 92.677231 106.936844 0.000000 0.000000 0.000000 -5.288682 -1.721835 -6.880464 -40.889167 -0.548791 20.327365 74.622501 10.410333 -1.410881 0.278757 -4.804519 -5.420873 -23.707976 1.166070 -4.411585 0.000000 0.000000 0.000000 -5.288682 -1.721835 -6.880464 -23.842263 -1.705335 11.603368 45.250225 3.743174 -1.882229 -17.335597 -3.032439 -3.163516 0.177347 0.000000 0.000002 0.000000 0.000000 0.000000 -5.288682 -1.721835 -6.880464 12.937508 1.347876 4.499788 13.310873 2.354186 3.011399 0.000000 0.000000 0.000000 0.000000 0.000000 0.000000 13.185328 2.402346 3.255977 -46.445051 11.148150 -20.308569 31.786030 -34.854288 25.272455 0.000000 0.000000 0.000000 13.185328 2.402346 3.255977 -0.763614 -11.178158 -7.892681 0.000000 0.000000 0.000000 -18.708204 14.340768 -70.172558 -0.000004 -43.185958 -0.000017 0.000000 0.000000 0.000000 13.185328 2.402346 3.255977 0.628505 2.284472 9.825060 0.000000 0.000000 0.000000 -99.014766 5.292078 26.326455 -179.999964 63.851976 179.999950 0.000000 0.000000 0.000000 
3.068771 92.687721 105.735916 0.000000 0.000000 0.000000 -5.089586 -1.806762 -7.241688 -37.365759 -0.080524 21.333107 76.741622 10.503958 -1.012357 0.486173 -4.721847 -5.787674 -27.646953 4.110541 -6.643427 0.000000 0.000000 0.000000 -5.089586 -1.806762 -7.241688 -24.938351 -1.611263 11.884958 44.993588 3.718568 -1.734186 -16.272265 -3.205926 -3.023411 0.243981 -0.000001 -0.000001 0.000000 0.000000 0.000000 -5.089586 -1.806762 -7.241688 12.259834 0.823269 4.443567 12.200204 1.594122 2.969845 0.000000 0.000000 0.000000 0.000000 0.000000 0.000000 12.079085 1.624324 3.221474 -44.420747 10.486255 -20.008293 31.332574 -36.258872 24.809545 0.000000 0.000000 0.000000 12.079085 1.624324 3.221474 -0.726701 -11.354927 -7.873009 0.000000 0.000000 0.000000 -16.858350 14.889877 -69.649078 0.000011 -44.813407 0.000023 0.000000 0.000000 0.000000 12.079085 1.624324 3.221474 0.602257 1.410582 8.972393 0.000000 0.000000 0.000000 -104.405896 5.108642 23.536446 -179.999937 64.396431 179.999923 0.000000 0.000000 0.000000 
